<?xml version="1.0" encoding="UTF-8"?>
<svg xmlns="http://www.w3.org/2000/svg" id="Layer_1" data-name="Layer 1" viewBox="0 0 150 150" width="512" height="512"><path d="M103.332,140H46.667a8.12,8.12,0,0,1-8.07-7.507L33.962,71.785a1,1,0,0,1,1-1.076H115.04a1,1,0,0,1,1,1.076L111.4,132.5A8.12,8.12,0,0,1,103.332,140ZM36.038,72.709l4.553,59.636A6.114,6.114,0,0,0,46.667,138h56.665a6.113,6.113,0,0,0,6.076-5.651l4.553-59.64Z"/><path d="M119.046,72.709H30.954a4.268,4.268,0,0,1-4.263-4.263V57.433a4.269,4.269,0,0,1,4.263-4.263h88.092a4.269,4.269,0,0,1,4.263,4.263V68.446A4.268,4.268,0,0,1,119.046,72.709ZM30.954,55.17a2.266,2.266,0,0,0-2.263,2.263V68.446a2.265,2.265,0,0,0,2.263,2.263h88.092a2.265,2.265,0,0,0,2.263-2.263V57.433a2.266,2.266,0,0,0-2.263-2.263Z"/><path d="M35.419,78.751a1,1,0,0,1-.707-1.707L40.751,71a1,1,0,0,1,1.414,1.414l-6.039,6.04A1,1,0,0,1,35.419,78.751Z"/><path d="M37.008,99.551a1,1,0,0,1-.707-1.707L63.14,71a1,1,0,0,1,1.414,1.414L37.715,99.258A1,1,0,0,1,37.008,99.551Z"/><path d="M38.6,120.36a1,1,0,0,1-.707-1.707L85.537,71a1,1,0,0,1,1.414,1.414L39.3,120.067A1,1,0,0,1,38.6,120.36Z"/><path d="M42.628,138.725a1,1,0,0,1-.707-1.707L107.936,71a1,1,0,0,1,1.414,1.414L43.335,138.432A.993.993,0,0,1,42.628,138.725Z"/><path d="M63.752,140a1,1,0,0,1-.707-1.707l49.969-49.97a1,1,0,0,1,1.414,1.414l-49.969,49.97A1,1,0,0,1,63.752,140Z"/><path d="M86.149,140a1,1,0,0,1-.707-1.707l25.717-25.717a1,1,0,1,1,1.414,1.414L86.856,139.707A1,1,0,0,1,86.149,140Z"/><path d="M114.577,78.751a1,1,0,0,1-.707-.293l-6.039-6.04A1,1,0,0,1,109.245,71l6.039,6.04a1,1,0,0,1-.707,1.707Z"/><path d="M112.989,99.551a1,1,0,0,1-.707-.293l-26.84-26.84A1,1,0,0,1,86.856,71l26.84,26.84a1,1,0,0,1-.707,1.707Z"/><path d="M111.4,120.351a1,1,0,0,1-.707-.293L63.054,72.418A1,1,0,0,1,64.468,71l47.639,47.64a1,1,0,0,1-.707,1.707Z"/><path d="M107.378,138.735a1,1,0,0,1-.707-.293L40.646,72.418A1,1,0,0,1,42.061,71l66.024,66.024a1,1,0,0,1-.707,1.707Z"/><path d="M86.254,140a1,1,0,0,1-.707-.293l-49.97-49.97a1,1,0,0,1,1.414-1.414l49.97,49.97A1,1,0,0,1,86.254,140Z"/><path d="M63.847,140a1,1,0,0,1-.707-.293L37.432,114a1,1,0,0,1,1.414-1.414l25.708,25.708A1,1,0,0,1,63.847,140Z"/><path d="M111.558,61.7H96.019a1,1,0,0,1,0-2h15.539a1,1,0,1,1,0,2Z"/><path d="M89.639,61.7H27.691a1,1,0,0,1,0-2H89.639a1,1,0,0,1,0,2Z"/><path d="M57.352,55.167a1,1,0,0,1-1-.922l-2.2-28.278a1,1,0,0,1,1.994-.155l2.2,28.278a1,1,0,0,1-.919,1.074Z"/><path d="M43.228,55.167a1,1,0,0,1-1-.922L40.107,27.064a1,1,0,0,1,.919-1.075,1.012,1.012,0,0,1,1.076.919l2.124,27.181a1,1,0,0,1-.919,1.075Z"/><path d="M47.013,29.04a18.653,18.653,0,0,1-6.238-1.112,1,1,0,0,1-.606-1.285l5.819-15.985A1,1,0,0,1,46.851,10a1.014,1.014,0,0,1,.953.514L56.023,25.41a1,1,0,0,1-.4,1.363A17.92,17.92,0,0,1,47.013,29.04ZM42.4,26.354a15.334,15.334,0,0,0,11.37-.883L47.115,13.409Z"/><path d="M105.667,55.168a1,1,0,0,1-.987-1.163L109.8,22.82a2.813,2.813,0,0,0-.49-2.12,2.848,2.848,0,0,0-1.86-1.155l-6.3-1.027a2.826,2.826,0,0,0-3.265,2.344l-5.5,33.467a1,1,0,1,1-1.973-.324l5.5-33.465a4.827,4.827,0,0,1,5.567-3.995l6.3,1.026a4.843,4.843,0,0,1,4,5.578l-5.119,31.18A1,1,0,0,1,105.667,55.168Z"/><path d="M111.2,46.615a1.026,1.026,0,0,1-.2-.019,1,1,0,0,1-.784-1.177l2.335-11.689a3.705,3.705,0,0,0-3.026-4.333L95.841,27.082a1,1,0,1,1,.334-1.972l13.688,2.315a5.7,5.7,0,0,1,4.655,6.687l-2.337,11.7A1,1,0,0,1,111.2,46.615Z"/><path d="M78.965,55.171a.978.978,0,0,1-.244-.031,1,1,0,0,1-.727-1.213l9.22-36.765L71.89,13.319l-10.307,41.1a1,1,0,1,1-1.939-.487L70.193,11.862a1,1,0,0,1,1.213-.726L88.67,15.465a1,1,0,0,1,.726,1.213L79.934,54.414A1,1,0,0,1,78.965,55.171Z"/><path d="M86.261,26.077a1.025,1.025,0,0,1-.244-.03l-4.9-1.229a1,1,0,0,1,.487-1.94l4.9,1.229a1,1,0,0,1-.242,1.97Z"/><path d="M84.935,31.365a.984.984,0,0,1-.245-.03l-3.63-.911a1,1,0,0,1,.486-1.94l3.631.911a1,1,0,0,1-.242,1.97Z"/><path d="M83.608,36.653a.976.976,0,0,1-.244-.03l-4.9-1.229a1,1,0,0,1,.486-1.94l4.9,1.229a1,1,0,0,1-.243,1.97Z"/><path d="M82.282,41.942a.978.978,0,0,1-.244-.031L78.407,41a1,1,0,0,1,.487-1.94l3.63.911a1,1,0,0,1-.242,1.97Z"/><path d="M80.956,47.23a1.025,1.025,0,0,1-.244-.03l-4.9-1.229a1,1,0,1,1,.486-1.94l4.9,1.229a1,1,0,0,1-.242,1.97Z"/><path d="M79.63,52.518a1.025,1.025,0,0,1-.244-.03l-3.631-.911a1,1,0,0,1,.486-1.94l3.631.911a1,1,0,0,1-.242,1.97Z"/><path d="M50.37,55.167a1,1,0,0,1-1-.919L47.263,28.074a1,1,0,1,1,1.994-.16l2.111,26.173a1,1,0,0,1-.917,1.077Z"/></svg>
