<svg id="Layer_1" height="512" viewBox="0 0 150 150" width="512" xmlns="http://www.w3.org/2000/svg" data-name="Layer 1"><path d="m61.673 119.924a1 1 0 0 1 -.707-.293l-28.26-28.26a1 1 0 0 1 -.133-1.249c8.227-12.745 19.469-26.372 32.505-39.408 43.6-43.6 72.62-38.318 73.835-38.071a1 1 0 0 1 .781.781c.247 1.214 5.532 30.233-38.071 73.835-13.036 13.037-26.663 24.277-39.408 32.5a.992.992 0 0 1 -.542.165zm-26.98-29.4 27.115 27.115a246.306 246.306 0 0 0 38.4-31.8c39.1-39.1 38.114-66.693 37.618-71.335-4.637-.5-32.23-1.487-71.335 37.618a246.373 246.373 0 0 0 -31.798 38.407z"/><path d="m54.016 122.045a1 1 0 0 1 -.707-.293l-22.724-22.724a1 1 0 0 1 0-1.414l4.889-4.889a1.029 1.029 0 0 1 1.414 0l22.724 22.724a1 1 0 0 1 0 1.414l-4.889 4.889a1 1 0 0 1 -.707.293zm-21.31-23.724 21.31 21.31 3.475-3.475-21.31-21.31z"/><path d="m40.315 81.737a1 1 0 0 1 -.665-.254 29.173 29.173 0 0 0 -17.876-7.389.987.987 0 0 1 -.931-.613 1 1 0 0 1 .215-1.094l7.28-7.28a.986.986 0 0 1 .254-.185c7.734-3.923 17.26-2.557 24.7-.928a1 1 0 0 1 -.428 1.954c-7.065-1.548-16.074-2.862-23.223.687l-5.621 5.618a31.462 31.462 0 0 1 16.962 7.738 1 1 0 0 1 -.667 1.746z"/><path d="m21.764 74.093a1 1 0 0 1 -.707-.293l-6.106-6.106a1 1 0 0 1 0-1.415l14.493-14.493c1.83-1.83 8.133-2.81 9.377-2.988a1 1 0 0 1 1.132 1.132c-.178 1.244-1.158 7.547-2.988 9.376l-14.494 14.494a1 1 0 0 1 -.707.293zm-4.692-7.106 4.692 4.692 13.787-13.787c.891-.891 1.735-4.28 2.2-6.9-2.615.468-6 1.312-6.895 2.2z"/><path d="m79.244 131.572a.986.986 0 0 1 -.386-.078 1 1 0 0 1 -.614-.929 29.283 29.283 0 0 0 -7.389-17.877 1 1 0 1 1 1.491-1.332 31.467 31.467 0 0 1 7.739 16.961l5.615-5.617c3.549-7.149 2.235-16.158.687-23.223a1 1 0 0 1 1.954-.428c1.629 7.436 2.995 16.962-.927 24.7a1.033 1.033 0 0 1 -.185.255l-7.28 7.279a1 1 0 0 1 -.705.289z"/><path d="m85.351 137.68a1 1 0 0 1 -.707-.293l-6.107-6.107a1 1 0 0 1 0-1.414l14.494-14.494c1.829-1.83 8.132-2.81 9.376-2.988a1 1 0 0 1 1.132 1.132c-.178 1.245-1.158 7.547-2.988 9.377l-14.493 14.494a1 1 0 0 1 -.707.293zm-4.693-7.107 4.693 4.692 13.786-13.787c.891-.89 1.736-4.279 2.2-6.895-2.615.468-6 1.312-6.9 2.2z"/><path d="m133.947 40.3a.989.989 0 0 1 -.214-.024 28.41 28.41 0 0 1 -21.67-21.67 1 1 0 0 1 1.954-.427 26.411 26.411 0 0 0 20.143 20.141 1 1 0 0 1 -.213 1.978z"/><path d="m106.686 54.674a9.023 9.023 0 1 1 6.38-15.4 9.023 9.023 0 0 1 -6.38 15.4zm0-16.046a7.023 7.023 0 1 0 4.966 2.057 6.978 6.978 0 0 0 -4.966-2.057z"/><path d="m53.606 85.683a1 1 0 0 1 -.707-1.707l10.126-10.125a1 1 0 1 1 1.414 1.414l-10.126 10.125a.993.993 0 0 1 -.707.293z"/><path d="m57.435 95.9a1 1 0 0 1 -.707-1.707l16.516-16.514a1 1 0 0 1 1.414 1.414l-16.516 16.516a1 1 0 0 1 -.707.291z"/><path d="m67.654 99.731a1 1 0 0 1 -.707-1.707l10.126-10.124a1 1 0 1 1 1.414 1.414l-10.126 10.124a1 1 0 0 1 -.707.293z"/><path d="m24.752 136.036a37.447 37.447 0 0 1 -14.19-2.786 1 1 0 0 1 .414-1.907 8.505 8.505 0 0 0 5.9-2.875 15.506 15.506 0 0 0 4.159-11.541 18.742 18.742 0 0 1 3.143-10.875 13.223 13.223 0 0 1 10.815-5.052 1 1 0 0 1 .68.292l15 15a.994.994 0 0 1 .292.665c.2 4.679-2.238 8.987-7.243 12.8a30.713 30.713 0 0 1 -18.97 6.279zm-10.2-3.485c5.532 1.63 17.416 3.658 27.958-4.383 4.312-3.288 6.486-6.9 6.467-10.747l-14.43-14.431a11.308 11.308 0 0 0 -8.8 4.307 17.087 17.087 0 0 0 -2.708 9.581 17.477 17.477 0 0 1 -4.744 13.005 12.664 12.664 0 0 1 -3.743 2.668z"/><path d="m28.836 129.537a1 1 0 0 1 -.906-.578c-.214-.46-5.146-11.368 2.214-21.019 2.107-2.761 4.472-4.313 7.032-4.612a1 1 0 0 1 .823.286l10.382 10.386a1 1 0 0 1 .288.816 8.712 8.712 0 0 1 -3.2 5.775 12.073 12.073 0 0 1 -7.054 2.072 9.276 9.276 0 0 0 -6.9 2.476 4.935 4.935 0 0 0 -1.678 3.409 1 1 0 0 1 -.788.97 1.034 1.034 0 0 1 -.213.019zm8.108-24.149a9.08 9.08 0 0 0 -5.21 3.765c-4.5 5.9-3.82 12.5-2.911 16.15a9.061 9.061 0 0 1 1.277-1.58 11.259 11.259 0 0 1 8.367-3.062 10.037 10.037 0 0 0 5.76-1.637 6.812 6.812 0 0 0 2.386-3.968z"/><path d="m36.307 117.992a11.7 11.7 0 0 1 -1.375-.071 1 1 0 0 1 -.866-.866c-.041-.326-.943-8.02 5.066-11.293a1 1 0 0 1 1.186.171l5.735 5.735a1 1 0 0 1 .172 1.186c-2.477 4.546-7.487 5.138-9.918 5.138zm-.3-2.01c1.746.037 5.88-.263 8.078-3.456l-4.624-4.626c-3.193 2.2-3.487 6.328-3.456 8.082z"/><path d="m65.359 61.448a1 1 0 0 1 -.723-1.691c1.681-1.759 3.213-3.329 4.684-4.8 1.667-1.668 3.356-3.3 5.162-4.99a1 1 0 0 1 1.367 1.46c-1.79 1.675-3.463 3.292-5.115 4.944-1.46 1.46-2.981 3.02-4.651 4.768a1 1 0 0 1 -.724.309z"/><path d="m80.485 46.9a1 1 0 0 1 -.656-1.755 140.039 140.039 0 0 1 25.617-18.045 1 1 0 1 1 .941 1.765 138.058 138.058 0 0 0 -25.246 17.784.994.994 0 0 1 -.656.251z"/></svg>