<svg id="Layer_1" height="512" viewBox="0 0 150 150" width="512" xmlns="http://www.w3.org/2000/svg" data-name="Layer 1"><path d="m111.274 140h-92.122a3.885 3.885 0 0 1 -3.881-3.881v-110.681a3.885 3.885 0 0 1 3.881-3.881h22.18a1 1 0 0 1 0 2h-22.18a1.883 1.883 0 0 0 -1.881 1.881v110.681a1.883 1.883 0 0 0 1.881 1.881h92.122a1.883 1.883 0 0 0 1.88-1.881v-110.681a1.883 1.883 0 0 0 -1.88-1.881h-22.191a1 1 0 0 1 0-2h22.191a3.885 3.885 0 0 1 3.88 3.881v110.681a3.885 3.885 0 0 1 -3.88 3.881z"/><path d="m109.092 134.937h-87.758a1 1 0 0 1 -1-1v-106.317a1 1 0 0 1 1-1h19.957a1 1 0 0 1 0 2h-18.957v104.317h85.758v-104.317h-18.968a1 1 0 0 1 0-2h19.968a1 1 0 0 1 1 1v106.317a1 1 0 0 1 -1 1z"/><path d="m89.126 31.32h-47.826a1 1 0 0 1 -1-1v-7.14a6.44 6.44 0 0 1 6.433-6.432h11.6a6.889 6.889 0 0 1 13.775 0h11.6a6.44 6.44 0 0 1 6.433 6.432v7.14a1 1 0 0 1 -1.015 1zm-46.831-2h45.831v-6.14a4.438 4.438 0 0 0 -4.433-4.432h-12.593a1 1 0 0 1 -1-1v-.859a4.889 4.889 0 1 0 -9.778 0v.859a1 1 0 0 1 -1 1h-12.594a4.438 4.438 0 0 0 -4.428 4.432z"/><path d="m65.21 19.409a2.974 2.974 0 1 1 2.974-2.973 2.977 2.977 0 0 1 -2.974 2.973zm0-3.947a.974.974 0 1 0 .974.974.975.975 0 0 0 -.974-.974z"/><path d="m45.735 58.588h-16.805a1 1 0 0 1 -1-1v-16.8a1 1 0 0 1 1-1h16.805a1 1 0 0 1 1 1v16.8a1 1 0 0 1 -1 1zm-15.8-2h14.8v-14.8h-14.805z"/><path d="m35.137 53.4a1 1 0 0 1 -.707-.293l-2.03-2.03a1 1 0 0 1 1.414-1.414l1.323 1.323 5.714-5.714a1 1 0 0 1 1.414 1.414l-6.421 6.414a1 1 0 0 1 -.707.3z"/><path d="m101.179 42.922h-49.4a1 1 0 0 1 0-2h49.4a1 1 0 0 1 0 2z"/><path d="m101.179 50.186h-49.4a1 1 0 0 1 0-2h49.4a1 1 0 0 1 0 2z"/><path d="m74.979 57.449h-23.2a1 1 0 1 1 0-2h23.2a1 1 0 0 1 0 2z"/><path d="m45.735 90.181h-16.805a1 1 0 0 1 -1-1v-16.8a1 1 0 0 1 1-1h16.805a1 1 0 0 1 1 1v16.8a1 1 0 0 1 -1 1zm-15.8-2h14.8v-14.8h-14.805z"/><path d="m35.137 84.989a1 1 0 0 1 -.707-.293l-2.03-2.029a1 1 0 1 1 1.414-1.415l1.323 1.323 5.714-5.714a1 1 0 0 1 1.414 1.414l-6.421 6.425a1 1 0 0 1 -.707.289z"/><path d="m101.179 74.515h-49.4a1 1 0 1 1 0-2h49.4a1 1 0 0 1 0 2z"/><path d="m101.179 81.779h-49.4a1 1 0 0 1 0-2h49.4a1 1 0 0 1 0 2z"/><path d="m74.979 89.042h-23.2a1 1 0 0 1 0-2h23.2a1 1 0 1 1 0 2z"/><path d="m45.735 121.774h-16.805a1 1 0 0 1 -1-1v-16.805a1 1 0 0 1 1-1h16.805a1 1 0 0 1 1 1v16.805a1 1 0 0 1 -1 1zm-15.8-2h14.8v-14.805h-14.805z"/><path d="m35.137 116.582a1 1 0 0 1 -.707-.293l-2.03-2.029a1 1 0 1 1 1.414-1.414l1.323 1.322 5.714-5.714a1 1 0 0 1 1.414 1.414l-6.421 6.421a1 1 0 0 1 -.707.293z"/><path d="m101.179 106.108h-49.4a1 1 0 0 1 0-2h49.4a1 1 0 0 1 0 2z"/><path d="m101.179 113.372h-49.4a1 1 0 1 1 0-2h49.4a1 1 0 0 1 0 2z"/><path d="m74.979 120.635h-23.2a1 1 0 1 1 0-2h23.2a1 1 0 0 1 0 2z"/><path d="m133.729 124.654a1 1 0 0 1 -1-1v-63.804h-11.751v63.8a1 1 0 0 1 -2 0v-64.8a1 1 0 0 1 1-1h13.751a1 1 0 0 1 1 1v64.8a1 1 0 0 1 -1 1.004z"/><path d="m133.729 64.31h-13.751a1 1 0 0 1 -1-1v-10.83a4.319 4.319 0 0 1 4.315-4.314h7.121a4.319 4.319 0 0 1 4.315 4.314v10.83a1 1 0 0 1 -1 1zm-12.751-2h11.751v-9.83a2.317 2.317 0 0 0 -2.315-2.314h-7.121a2.317 2.317 0 0 0 -2.315 2.314z"/><path d="m126.854 140a1 1 0 0 1 -.913-.591l-6.876-15.347a1 1 0 0 1 .375-1.251 12.853 12.853 0 0 1 14.826 0 1 1 0 0 1 .375 1.251l-6.875 15.347a1 1 0 0 1 -.912.591zm-5.6-15.947 5.6 12.5 5.6-12.5a10.622 10.622 0 0 0 -11.201 0z"/><path d="m126.858 122.461a1 1 0 0 1 -1-1v-58.151a1 1 0 0 1 2 0v58.151a1 1 0 0 1 -1 1z"/></svg>